<?xml version="1.0" standalone="no"?>
<!DOCTYPE svg PUBLIC "-//W3C//DTD SVG 20010904//EN"
 "http://www.w3.org/TR/2001/REC-SVG-20010904/DTD/svg10.dtd">
<svg version="1.0" xmlns="http://www.w3.org/2000/svg"
 width="450.000000pt" height="387.000000pt" viewBox="0 0 450.000000 387.000000"
 preserveAspectRatio="xMidYMid meet">

<g transform="translate(0.000000,387.000000) scale(0.100000,-0.100000)"
fill="#000000" stroke="none">
<path d="M490 2583 c-105 -54 -104 -184 2 -239 21 -11 81 -14 271 -14 l245 0
30 -72 c44 -107 540 -1227 560 -1267 10 -19 33 -42 52 -53 33 -17 78 -18 868
-18 910 0 879 -2 917 56 9 15 68 278 137 617 116 566 120 593 107 631 -9 25
-27 49 -48 63 l-34 23 -879 0 c-797 0 -883 -2 -908 -16 -39 -24 -60 -65 -60
-119 0 -42 5 -52 39 -86 l39 -39 781 0 c429 0 781 -3 781 -7 0 -5 -10 -56 -21
-115 l-22 -108 -546 0 c-524 0 -547 -1 -578 -20 -45 -27 -66 -64 -66 -115 0
-48 20 -86 60 -112 25 -17 70 -18 550 -21 288 -1 523 -4 523 -6 0 -1 -16 -81
-35 -176 -19 -95 -35 -175 -35 -177 0 -2 -320 -2 -712 -1 l-711 3 -84 190
c-46 105 -115 260 -152 345 -38 85 -112 254 -166 375 -193 439 -196 444 -229
468 -30 21 -39 22 -336 25 -276 2 -308 1 -340 -15z"/>
<path d="M1937 759 c-99 -24 -177 -95 -204 -188 -20 -71 -12 -138 25 -205 103
-183 361 -183 464 0 57 102 45 220 -31 306 -62 70 -170 107 -254 87z"/>
<path d="M2913 759 c-83 -16 -159 -76 -194 -153 -26 -57 -25 -157 2 -216 98
-218 409 -210 494 13 22 57 17 155 -10 211 -51 107 -174 168 -292 145z"/>
</g>
</svg>
